<svg width="23" height="24" viewBox="0 0 23 24" fill="none" xmlns="http://www.w3.org/2000/svg">
<mask id="mask0_1355_2770" style="mask-type:alpha" maskUnits="userSpaceOnUse" x="0" y="0" width="23" height="24">
<rect y="0.5" width="23" height="23" fill="#FF9500"/>
</mask>
<g mask="url(#mask0_1355_2770)">
<path d="M8.625 14.875C7.02778 14.875 5.67014 14.316 4.55208 13.1979C3.43403 12.0799 2.875 10.7222 2.875 9.125C2.875 8.80556 2.89896 8.48611 2.94687 8.16667C2.99479 7.84722 3.08264 7.54375 3.21042 7.25625C3.29028 7.09653 3.3901 6.97674 3.5099 6.89687C3.62969 6.81701 3.76146 6.76111 3.90521 6.72917C4.04896 6.69722 4.1967 6.70122 4.34844 6.74115C4.50017 6.78108 4.63993 6.86493 4.76771 6.99271L7.28333 9.50833L9.00833 7.78333L6.49271 5.26771C6.36493 5.13993 6.28108 5.00017 6.24115 4.84844C6.20122 4.6967 6.19722 4.54896 6.22917 4.40521C6.26111 4.26146 6.31701 4.12969 6.39687 4.0099C6.47674 3.8901 6.59653 3.79028 6.75625 3.71042C7.04375 3.58264 7.34722 3.49479 7.66667 3.44687C7.98611 3.39896 8.30556 3.375 8.625 3.375C10.2222 3.375 11.5799 3.93403 12.6979 5.05208C13.816 6.17014 14.375 7.52778 14.375 9.125C14.375 9.49236 14.3431 9.83976 14.2792 10.1672C14.2153 10.4946 14.1194 10.8181 13.9917 11.1375L18.8312 15.9292C19.2944 16.3924 19.526 16.9594 19.526 17.6302C19.526 18.301 19.2944 18.8681 18.8312 19.3312C18.3681 19.7944 17.801 20.026 17.1302 20.026C16.4594 20.026 15.8924 19.7865 15.4292 19.3073L10.6375 14.4917C10.3181 14.6194 9.99462 14.7153 9.66719 14.7792C9.33976 14.8431 8.99236 14.875 8.625 14.875ZM8.625 12.9583C9.04028 12.9583 9.45556 12.8944 9.87083 12.7667C10.2861 12.6389 10.6615 12.4392 10.9969 12.1677L16.8187 17.9896C16.8986 18.0694 17.0064 18.1054 17.1422 18.0974C17.278 18.0894 17.3858 18.0455 17.4656 17.9656C17.5455 17.8858 17.5854 17.778 17.5854 17.6422C17.5854 17.5064 17.5455 17.3986 17.4656 17.3187L11.6438 11.5208C11.9313 11.2014 12.1389 10.83 12.2667 10.4068C12.3944 9.98351 12.4583 9.55625 12.4583 9.125C12.4583 8.16667 12.1509 7.33212 11.5359 6.62135C10.921 5.91059 10.1583 5.48333 9.24792 5.33958L11.0208 7.1125C11.2125 7.30417 11.3083 7.52778 11.3083 7.78333C11.3083 8.03889 11.2125 8.2625 11.0208 8.45417L7.95417 11.5208C7.7625 11.7125 7.53889 11.8083 7.28333 11.8083C7.02778 11.8083 6.80417 11.7125 6.6125 11.5208L4.83958 9.74792C4.98333 10.6583 5.41059 11.421 6.12135 12.0359C6.83212 12.6509 7.66667 12.9583 8.625 12.9583Z" fill="#FF9500"/>
</g>
</svg>
