<svg width="52" height="52" viewBox="0 0 52 52" fill="none" xmlns="http://www.w3.org/2000/svg">
<circle cx="26" cy="26" r="26" fill="#00D9FF" fill-opacity="0.23"/>
<mask id="mask0_1355_2963" style="mask-type:alpha" maskUnits="userSpaceOnUse" x="12" y="12" width="29" height="29">
<rect x="12.3389" y="12.339" width="28.2034" height="28.2034" fill="#00D9FF"/>
</mask>
<g mask="url(#mask0_1355_2963)">
<path d="M17.0391 37.017V31.1412C17.0391 30.4949 17.2692 29.9416 17.7295 29.4814C18.1897 29.0211 18.743 28.791 19.3893 28.791H33.491C34.1374 28.791 34.6907 29.0211 35.1509 29.4814C35.6112 29.9416 35.8413 30.4949 35.8413 31.1412V37.017H17.0391ZM22.9148 27.6158C21.2892 27.6158 19.9035 27.0429 18.7577 25.8972C17.6119 24.7514 17.0391 23.3657 17.0391 21.7401C17.0391 20.1145 17.6119 18.7288 18.7577 17.5831C19.9035 16.4373 21.2892 15.8644 22.9148 15.8644H29.9656C31.5912 15.8644 32.9769 16.4373 34.1227 17.5831C35.2684 18.7288 35.8413 20.1145 35.8413 21.7401C35.8413 23.3657 35.2684 24.7514 34.1227 25.8972C32.9769 27.0429 31.5912 27.6158 29.9656 27.6158H22.9148ZM19.3893 34.6667H33.491V31.1412H19.3893V34.6667ZM22.9148 25.2655H29.9656C30.9449 25.2655 31.7773 24.9228 32.4628 24.2373C33.1483 23.5518 33.491 22.7194 33.491 21.7401C33.491 20.7608 33.1483 19.9284 32.4628 19.2429C31.7773 18.5574 30.9449 18.2147 29.9656 18.2147H22.9148C21.9355 18.2147 21.1031 18.5574 20.4176 19.2429C19.7321 19.9284 19.3893 20.7608 19.3893 21.7401C19.3893 22.7194 19.7321 23.5518 20.4176 24.2373C21.1031 24.9228 21.9355 25.2655 22.9148 25.2655ZM22.9148 22.9153C23.2477 22.9153 23.5268 22.8026 23.7521 22.5774C23.9773 22.3522 24.0899 22.0731 24.0899 21.7401C24.0899 21.4072 23.9773 21.1281 23.7521 20.9028C23.5268 20.6776 23.2477 20.565 22.9148 20.565C22.5818 20.565 22.3027 20.6776 22.0775 20.9028C21.8522 21.1281 21.7396 21.4072 21.7396 21.7401C21.7396 22.0731 21.8522 22.3522 22.0775 22.5774C22.3027 22.8026 22.5818 22.9153 22.9148 22.9153ZM29.9656 22.9153C30.2986 22.9153 30.5777 22.8026 30.8029 22.5774C31.0281 22.3522 31.1408 22.0731 31.1408 21.7401C31.1408 21.4072 31.0281 21.1281 30.8029 20.9028C30.5777 20.6776 30.2986 20.565 29.9656 20.565C29.6327 20.565 29.3536 20.6776 29.1283 20.9028C28.9031 21.1281 28.7905 21.4072 28.7905 21.7401C28.7905 22.0731 28.9031 22.3522 29.1283 22.5774C29.3536 22.8026 29.6327 22.9153 29.9656 22.9153Z" fill="#00D9FF"/>
</g>
</svg>
