<svg width="34" height="34" viewBox="0 0 34 34" fill="none" xmlns="http://www.w3.org/2000/svg">
<mask id="mask0_1355_2294" style="mask-type:alpha" maskUnits="userSpaceOnUse" x="0" y="0" width="34" height="34">
<rect width="34" height="34" fill="#03FF88"/>
</mask>
<g mask="url(#mask0_1355_2294)">
<path d="M11.1205 29.9271C8.66495 28.7937 6.66981 27.0819 5.13509 24.7916C3.60037 22.5014 2.83301 19.916 2.83301 17.0354C2.83301 16.4215 2.86252 15.8194 2.92155 15.2291C2.98058 14.6389 3.08092 14.0604 3.22259 13.4937L1.59342 14.45L0.176758 12.0062L6.94134 8.1104L10.8372 14.8396L8.35801 16.2562L6.44551 12.9271C6.18579 13.5646 5.99099 14.2257 5.86113 14.9104C5.73127 15.5951 5.66634 16.3035 5.66634 17.0354C5.66634 19.3257 6.29204 21.4094 7.54343 23.2864C8.79481 25.1635 10.4594 26.5507 12.5372 27.4479L11.1205 29.9271ZM21.958 12.75V9.91665H25.8184C24.7323 8.57081 23.4219 7.52602 21.8872 6.78227C20.3525 6.03852 18.7233 5.66665 16.9997 5.66665C15.7011 5.66665 14.4733 5.86734 13.3163 6.26873C12.1594 6.67012 11.0969 7.23678 10.1288 7.96873L8.71218 5.48956C9.89273 4.66317 11.1795 4.01387 12.5726 3.54165C13.9656 3.06942 15.4413 2.83331 16.9997 2.83331C18.865 2.83331 20.6476 3.18158 22.3476 3.8781C24.0476 4.57463 25.5705 5.58401 26.9163 6.90623V4.95831H29.7497V12.75H21.958ZM21.0372 34L14.2726 30.1041L18.1684 23.375L20.6122 24.7916L18.5934 28.2625C21.3795 27.8611 23.6993 26.5979 25.5528 24.4729C27.4063 22.3479 28.333 19.8569 28.333 17C28.333 16.7403 28.3271 16.4982 28.3153 16.2739C28.3035 16.0496 28.274 15.8194 28.2268 15.5833H31.0955C31.1191 15.8194 31.1368 16.0496 31.1486 16.2739C31.1604 16.4982 31.1663 16.7403 31.1663 17C31.1663 20.1875 30.216 23.0385 28.3153 25.5531C26.4146 28.0677 23.9413 29.7618 20.8955 30.6354L22.4538 31.5562L21.0372 34Z" fill="#03FF88"/>
</g>
</svg>
