<svg width="32" height="32" viewBox="0 0 32 32" fill="none" xmlns="http://www.w3.org/2000/svg">
<mask id="mask0_1355_3229" style="mask-type:alpha" maskUnits="userSpaceOnUse" x="0" y="0" width="32" height="32">
<rect width="32" height="32" fill="#6E7BA5"/>
</mask>
<g mask="url(#mask0_1355_3229)">
<path d="M5.33301 28V21.3333C5.33301 20.6 5.59412 19.9722 6.11634 19.45C6.63856 18.9278 7.26634 18.6667 7.99967 18.6667H23.9997C24.733 18.6667 25.3608 18.9278 25.883 19.45C26.4052 19.9722 26.6663 20.6 26.6663 21.3333V28H5.33301ZM11.9997 17.3333C10.1552 17.3333 8.58301 16.6833 7.28301 15.3833C5.98301 14.0833 5.33301 12.5111 5.33301 10.6667C5.33301 8.82222 5.98301 7.25 7.28301 5.95C8.58301 4.65 10.1552 4 11.9997 4H19.9997C21.8441 4 23.4163 4.65 24.7163 5.95C26.0163 7.25 26.6663 8.82222 26.6663 10.6667C26.6663 12.5111 26.0163 14.0833 24.7163 15.3833C23.4163 16.6833 21.8441 17.3333 19.9997 17.3333H11.9997ZM7.99967 25.3333H23.9997V21.3333H7.99967V25.3333ZM11.9997 14.6667H19.9997C21.1108 14.6667 22.0552 14.2778 22.833 13.5C23.6108 12.7222 23.9997 11.7778 23.9997 10.6667C23.9997 9.55556 23.6108 8.61111 22.833 7.83333C22.0552 7.05556 21.1108 6.66667 19.9997 6.66667H11.9997C10.8886 6.66667 9.94412 7.05556 9.16634 7.83333C8.38856 8.61111 7.99967 9.55556 7.99967 10.6667C7.99967 11.7778 8.38856 12.7222 9.16634 13.5C9.94412 14.2778 10.8886 14.6667 11.9997 14.6667ZM11.9997 12C12.3775 12 12.6941 11.8722 12.9497 11.6167C13.2052 11.3611 13.333 11.0444 13.333 10.6667C13.333 10.2889 13.2052 9.97222 12.9497 9.71667C12.6941 9.46111 12.3775 9.33333 11.9997 9.33333C11.6219 9.33333 11.3052 9.46111 11.0497 9.71667C10.7941 9.97222 10.6663 10.2889 10.6663 10.6667C10.6663 11.0444 10.7941 11.3611 11.0497 11.6167C11.3052 11.8722 11.6219 12 11.9997 12ZM19.9997 12C20.3775 12 20.6941 11.8722 20.9497 11.6167C21.2052 11.3611 21.333 11.0444 21.333 10.6667C21.333 10.2889 21.2052 9.97222 20.9497 9.71667C20.6941 9.46111 20.3775 9.33333 19.9997 9.33333C19.6219 9.33333 19.3052 9.46111 19.0497 9.71667C18.7941 9.97222 18.6663 10.2889 18.6663 10.6667C18.6663 11.0444 18.7941 11.3611 19.0497 11.6167C19.3052 11.8722 19.6219 12 19.9997 12Z" fill="#6E7BA5"/>
</g>
</svg>
