<svg width="23" height="23" viewBox="0 0 23 23" fill="none" xmlns="http://www.w3.org/2000/svg">
<mask id="mask0_1355_2753" style="mask-type:alpha" maskUnits="userSpaceOnUse" x="0" y="0" width="23" height="23">
<rect width="23" height="23" fill="#6E7BA5"/>
</mask>
<g mask="url(#mask0_1355_2753)">
<path d="M11.4997 18.5438C13.4483 16.7549 14.8938 15.1297 15.8361 13.6682C16.7785 12.2068 17.2497 10.909 17.2497 9.775C17.2497 8.03403 16.6946 6.60851 15.5846 5.49844C14.4745 4.38837 13.1129 3.83333 11.4997 3.83333C9.88648 3.83333 8.52485 4.38837 7.41478 5.49844C6.30471 6.60851 5.74967 8.03403 5.74967 9.775C5.74967 10.909 6.22086 12.2068 7.16322 13.6682C8.10558 15.1297 9.55106 16.7549 11.4997 18.5438ZM11.4997 20.4365C11.2761 20.4365 11.0525 20.3965 10.8288 20.3167C10.6052 20.2368 10.4056 20.117 10.2299 19.9573C9.19169 18.999 8.27329 18.0646 7.47467 17.1542C6.67606 16.2438 6.00922 15.3613 5.47415 14.5068C4.93908 13.6523 4.53179 12.8297 4.25228 12.0391C3.97276 11.2484 3.83301 10.4938 3.83301 9.775C3.83301 7.37917 4.60367 5.47049 6.14499 4.04896C7.68631 2.62743 9.4712 1.91667 11.4997 1.91667C13.5281 1.91667 15.313 2.62743 16.8544 4.04896C18.3957 5.47049 19.1663 7.37917 19.1663 9.775C19.1663 10.4938 19.0266 11.2484 18.7471 12.0391C18.4676 12.8297 18.0603 13.6523 17.5252 14.5068C16.9901 15.3613 16.3233 16.2438 15.5247 17.1542C14.7261 18.0646 13.8077 18.999 12.7695 19.9573C12.5938 20.117 12.3941 20.2368 12.1705 20.3167C11.9469 20.3965 11.7233 20.4365 11.4997 20.4365ZM11.4997 11.5C12.0268 11.5 12.478 11.3123 12.8533 10.937C13.2287 10.5616 13.4163 10.1104 13.4163 9.58333C13.4163 9.05625 13.2287 8.60504 12.8533 8.22969C12.478 7.85434 12.0268 7.66667 11.4997 7.66667C10.9726 7.66667 10.5214 7.85434 10.146 8.22969C9.77068 8.60504 9.58301 9.05625 9.58301 9.58333C9.58301 10.1104 9.77068 10.5616 10.146 10.937C10.5214 11.3123 10.9726 11.5 11.4997 11.5Z" fill="#6E7BA5"/>
</g>
</svg>
