<svg width="32" height="32" viewBox="0 0 32 32" fill="none" xmlns="http://www.w3.org/2000/svg">
<mask id="mask0_1355_3235" style="mask-type:alpha" maskUnits="userSpaceOnUse" x="0" y="0" width="32" height="32">
<rect width="32" height="32" fill="#6E7BA5"/>
</mask>
<g mask="url(#mask0_1355_3235)">
<path d="M4 17.3333V6.66667C4 5.93333 4.26111 5.30556 4.78333 4.78333C5.30556 4.26111 5.93333 4 6.66667 4H14.6667V17.3333H4ZM17.3333 4H25.3333C26.0667 4 26.6944 4.26111 27.2167 4.78333C27.7389 5.30556 28 5.93333 28 6.66667V12H17.3333V4ZM17.3333 28V14.6667H28V25.3333C28 26.0667 27.7389 26.6944 27.2167 27.2167C26.6944 27.7389 26.0667 28 25.3333 28H17.3333ZM4 20H14.6667V28H6.66667C5.93333 28 5.30556 27.7389 4.78333 27.2167C4.26111 26.6944 4 26.0667 4 25.3333V20ZM6.66667 14.6667H12V6.66667H6.66667V14.6667ZM20 9.33333H25.3333V6.66667H20V9.33333ZM20 17.3333V25.3333H25.3333V17.3333H20ZM6.66667 22.6667V25.3333H12V22.6667H6.66667Z" fill="#6E7BA5"/>
</g>
</svg>
