<svg width="51" height="51" viewBox="0 0 51 51" fill="none" xmlns="http://www.w3.org/2000/svg">
<circle cx="25.5" cy="25.5" r="25.5" fill="url(#paint0_linear_1355_2516)"/>
<path d="M13.2744 27.1413C13.319 26.9335 13.319 26.6987 13.4142 26.5194C14.2931 24.8693 15.1935 23.2319 16.0724 21.5818C16.1615 21.4136 16.2076 21.1931 16.1969 21.0011C16.1354 19.8444 16.5349 18.8845 17.466 18.2689C17.9746 17.9326 18.3173 17.5264 18.5324 16.9869C18.686 16.603 18.9303 16.522 19.3068 16.5236C22.9991 16.5363 26.6913 16.5347 30.3836 16.5268C30.7001 16.5268 30.9475 16.5633 31.072 16.9123C31.1626 17.1646 31.3378 17.1503 31.5652 17.0742C33.8439 16.3142 36.1655 15.7398 38.561 15.5939C39.5351 15.5352 40.54 15.551 41.4958 15.7319C43.1414 16.0429 43.7621 17.2757 43.2074 18.9131C42.7496 20.2665 41.8952 21.3644 40.9887 22.4195C39.6965 23.9237 38.2368 25.2406 36.6895 26.4559C36.5358 26.5765 36.33 26.6574 36.4375 26.9446C36.4652 27.0192 36.353 27.1556 36.2962 27.2588C34.5752 30.3749 32.8513 33.4879 31.1411 36.6103C30.9844 36.8959 30.8184 37.0038 30.5004 37.0038C26.7067 36.9943 22.913 36.9895 19.1193 37.0165C18.683 37.0197 18.6123 36.7119 18.4172 36.439C17.7979 36.6437 17.1818 36.8531 16.5626 37.0483C14.2301 37.7797 11.8792 38.4128 9.41465 38.354C8.9414 38.3429 8.45894 38.2826 8.00105 38.1589C6.65352 37.7924 6.11574 36.8166 6.49218 35.4347C6.87478 34.0305 7.68453 32.8611 8.63103 31.8346C9.9171 30.4415 11.3107 29.1548 12.6629 27.8284C12.8826 27.6126 13.1269 27.4254 13.3604 27.2254C13.3313 27.1969 13.3021 27.1699 13.2729 27.1413H13.2744ZM17.0773 23.0034C16.3997 24.2505 15.7497 25.4643 15.0798 26.6669C14.9477 26.9049 14.9431 27.0795 15.0767 27.3159C16.369 29.599 17.6581 31.8838 18.9242 34.1812C19.124 34.5446 19.296 34.5937 19.6663 34.4462C24.7568 32.3994 29.5308 29.7418 34.0405 26.5638C34.4124 26.302 34.4185 26.1164 34.2126 25.7515C32.8482 23.3223 31.496 20.8853 30.1547 18.4434C30.0241 18.2055 29.8735 18.1563 29.6353 18.1579C26.8573 18.1642 24.0777 18.1594 21.2997 18.161C21.1983 18.161 21.0968 18.1832 20.9616 18.1991C22.4628 19.8444 22.6426 21.4565 21.5056 22.8114C20.6297 23.8554 18.8597 24.5742 17.0804 23.0066L17.0773 23.0034ZM35.743 25.3151C37.0659 24.2727 38.309 23.2017 39.3308 21.8912C39.7549 21.347 40.1574 20.7663 40.4571 20.1443C41.1147 18.7766 40.6046 17.7723 39.1602 17.4534C39.0757 17.4344 38.9881 17.4248 38.9021 17.4121C37.4163 17.209 35.9566 17.4169 34.5122 17.7548C33.661 17.9548 32.819 18.2039 31.9124 18.4482C33.2093 20.7726 34.4569 23.0082 35.743 25.3151ZM14.035 28.5979C13.9459 28.6534 13.8798 28.6835 13.826 28.728C12.4985 29.7958 11.2262 30.935 10.2213 32.336C9.78035 32.9516 9.39314 33.6418 9.14423 34.3589C8.81541 35.303 9.2103 36.0312 10.1553 36.2851C10.7868 36.4549 11.4721 36.5231 12.1235 36.4802C13.9259 36.3628 15.6453 35.8202 17.3508 35.2379C17.4537 35.203 17.5475 35.1411 17.6673 35.0808C16.4473 32.9024 15.2458 30.7589 14.0365 28.5979H14.035ZM21.3888 35.3823C21.4441 35.3918 21.501 35.4077 21.5563 35.4077C24.2913 35.4093 27.0278 35.4172 29.7628 35.3966C29.9257 35.3966 30.1485 35.2157 30.2392 35.057C31.1749 33.3895 32.0891 31.7092 33.008 30.0306C33.2753 29.5435 33.5366 29.0516 33.8008 28.563C29.8474 31.2079 25.7325 33.4879 21.3903 35.3823H21.3888Z" fill="black"/>
<path d="M21.3821 26.6367C21.3821 26.0385 21.3621 25.4388 21.3944 24.8422C21.4036 24.674 21.5311 24.4487 21.671 24.3631C22.6159 23.7823 23.5716 23.2207 24.5396 22.6812C24.6825 22.6019 24.9376 22.5987 25.0805 22.6781C26.0593 23.227 27.0273 23.7982 27.9845 24.3853C28.1044 24.4583 28.2181 24.6582 28.2196 24.8025C28.2381 25.9989 28.2396 27.1952 28.2196 28.3915C28.2166 28.5438 28.0921 28.7533 27.9646 28.8326C27.0104 29.426 26.0454 30.0019 25.0682 30.5557C24.9284 30.635 24.6749 30.6334 24.535 30.5557C23.5701 30.0099 22.6267 29.426 21.6663 28.8738C21.4405 28.7453 21.3713 28.5914 21.3775 28.3407C21.3913 27.7727 21.3821 27.2047 21.3821 26.6351H21.3836L21.3821 26.6367Z" fill="black"/>
<defs>
<linearGradient id="paint0_linear_1355_2516" x1="2.61714e-07" y1="3.67166" x2="51" y2="47.3283" gradientUnits="userSpaceOnUse">
<stop stop-color="#00E5E0"/>
<stop offset="0.519231" stop-color="#00EEC7"/>
<stop offset="1" stop-color="#00F9A1"/>
</linearGradient>
</defs>
</svg>
