<svg width="34" height="34" viewBox="0 0 34 34" fill="none" xmlns="http://www.w3.org/2000/svg">
<mask id="mask0_1355_2306" style="mask-type:alpha" maskUnits="userSpaceOnUse" x="0" y="0" width="34" height="34">
<rect width="34" height="34" fill="#FFFF00"/>
</mask>
<g mask="url(#mask0_1355_2306)">
<path d="M14.9455 25.7833L22.2767 16.9999H16.61L17.6371 8.96036L11.085 18.4166H16.008L14.9455 25.7833ZM12.7496 21.2499H8.35796C7.7913 21.2499 7.3722 20.9961 7.10067 20.4885C6.82914 19.9808 6.85866 19.4909 7.18921 19.0187L17.7788 3.78952C18.0149 3.45897 18.3219 3.22876 18.6996 3.0989C19.0774 2.96904 19.467 2.97494 19.8684 3.11661C20.2698 3.25827 20.5649 3.50619 20.7538 3.86036C20.9427 4.21452 21.0135 4.5923 20.9663 4.99369L19.833 14.1666H25.3225C25.9364 14.1666 26.3673 14.4381 26.6153 14.9812C26.8632 15.5242 26.7864 16.0319 26.385 16.5041L14.733 30.4583C14.4732 30.7652 14.1545 30.9659 13.7767 31.0604C13.3989 31.1548 13.033 31.1194 12.6788 30.9541C12.3246 30.7888 12.0472 30.535 11.8465 30.1926C11.6458 29.8503 11.5691 29.4784 11.6163 29.077L12.7496 21.2499Z" fill="#FFFF00"/>
</g>
</svg>
