<svg width="23" height="24" viewBox="0 0 23 24" fill="none" xmlns="http://www.w3.org/2000/svg">
<mask id="mask0_1355_2767" style="mask-type:alpha" maskUnits="userSpaceOnUse" x="0" y="0" width="23" height="24">
<rect y="0.5" width="23" height="23" fill="#D9D9D9"/>
</mask>
<g mask="url(#mask0_1355_2767)">
<path d="M9.31994 8.50208L10.9491 5.79479L9.53556 3.44687C9.34389 3.12743 9.06837 2.9677 8.709 2.9677C8.34962 2.9677 8.0741 3.12743 7.88244 3.44687L6.03765 6.5375C5.90987 6.76111 5.87393 7.00468 5.92983 7.26822C5.98574 7.53177 6.12549 7.72743 6.3491 7.8552L8.00223 8.8375C8.22584 8.96527 8.46942 8.99722 8.73296 8.93333C8.9965 8.86944 9.19216 8.72569 9.31994 8.50208ZM18.0887 15.8333L16.4595 13.126C16.3158 12.9024 16.2798 12.6589 16.3517 12.3953C16.4236 12.1318 16.5713 11.9361 16.7949 11.8083L18.472 10.85C18.6956 10.7222 18.9352 10.6903 19.1908 10.7542C19.4463 10.8181 19.638 10.9618 19.7658 11.1854L20.8199 12.9344C20.9956 13.2059 21.0915 13.5094 21.1074 13.8448C21.1234 14.1802 21.0515 14.4917 20.8918 14.7792C20.7321 15.0986 20.4965 15.3542 20.185 15.5458C19.8736 15.7375 19.5342 15.8333 19.1668 15.8333H18.0887ZM14.5189 21.7271L12.171 19.3792C11.9793 19.1875 11.8835 18.9639 11.8835 18.7083C11.8835 18.4528 11.9793 18.2292 12.171 18.0375L14.5189 15.6896C14.6786 15.5299 14.8543 15.4899 15.046 15.5698C15.2376 15.6496 15.3335 15.8014 15.3335 16.025V16.7917H19.8856L18.496 19.5708C18.3203 19.8903 18.0807 20.1458 17.7772 20.3375C17.4738 20.5292 17.1383 20.625 16.771 20.625H15.3335V21.3917C15.3335 21.6153 15.2376 21.767 15.046 21.8469C14.8543 21.9267 14.6786 21.8868 14.5189 21.7271ZM6.0616 20.625C5.74216 20.625 5.45067 20.5411 5.18712 20.3734C4.92358 20.2057 4.72792 19.9861 4.60015 19.7146C4.47237 19.459 4.41247 19.1915 4.42046 18.912C4.42844 18.6325 4.50431 18.3729 4.64806 18.1333L5.46265 16.7917H8.62514C8.89667 16.7917 9.12428 16.8835 9.30796 17.0672C9.49164 17.2509 9.58348 17.4785 9.58348 17.75V19.6667C9.58348 19.9382 9.49164 20.1658 9.30796 20.3495C9.12428 20.5332 8.89667 20.625 8.62514 20.625H6.0616ZM3.68973 17.8937L2.13244 14.7792C1.98869 14.4917 1.9208 14.1842 1.92879 13.8568C1.93678 13.5293 2.02862 13.2219 2.20431 12.9344L2.58765 12.2875L1.94077 11.9042C1.76508 11.7924 1.6932 11.6286 1.72515 11.413C1.75709 11.1974 1.87688 11.0656 2.08452 11.0177L5.27098 10.2271C5.52653 10.1632 5.77011 10.1991 6.00171 10.3349C6.2333 10.4707 6.38105 10.6663 6.44494 10.9219L7.23556 14.1323C7.28348 14.3399 7.21959 14.5076 7.0439 14.6354C6.8682 14.7632 6.69251 14.7712 6.51681 14.6594L5.86994 14.2521L3.68973 17.8937ZM15.6929 9.46041L12.5064 8.66979C12.2988 8.62187 12.183 8.4901 12.159 8.27448C12.135 8.05885 12.2109 7.89513 12.3866 7.78333L13.0335 7.4L10.0387 2.41666H13.4168C13.7522 2.41666 14.0677 2.50052 14.3632 2.66822C14.6587 2.83593 14.8942 3.06354 15.0699 3.35104L16.3158 5.43541L16.9387 5.05208C17.1144 4.94027 17.2901 4.94826 17.4658 5.07604C17.6415 5.20382 17.7054 5.37152 17.6574 5.57916L16.8668 8.76562C16.8029 9.02118 16.6552 9.21684 16.4236 9.3526C16.192 9.48836 15.9484 9.5243 15.6929 9.46041Z" fill="#03FF88"/>
</g>
</svg>
