<svg width="23" height="23" viewBox="0 0 23 23" fill="none" xmlns="http://www.w3.org/2000/svg">
<mask id="mask0_1355_3019" style="mask-type:alpha" maskUnits="userSpaceOnUse" x="0" y="0" width="23" height="23">
<rect width="23" height="23" fill="#FF9500"/>
</mask>
<g mask="url(#mask0_1355_3019)">
<path d="M3.83301 17.25C3.0344 17.25 2.35558 16.9705 1.79655 16.4115C1.23752 15.8524 0.958008 15.1736 0.958008 14.375V8.625C0.958008 7.82639 1.23752 7.14757 1.79655 6.58854C2.35558 6.02951 3.0344 5.75 3.83301 5.75H16.7705C17.5691 5.75 18.2479 6.02951 18.807 6.58854C19.366 7.14757 19.6455 7.82639 19.6455 8.625V14.375C19.6455 15.1736 19.366 15.8524 18.807 16.4115C18.2479 16.9705 17.5691 17.25 16.7705 17.25H3.83301ZM3.83301 15.3333H16.7705C17.042 15.3333 17.2696 15.2415 17.4533 15.0578C17.637 14.8741 17.7288 14.6465 17.7288 14.375V8.625C17.7288 8.35347 17.637 8.12587 17.4533 7.94219C17.2696 7.75851 17.042 7.66667 16.7705 7.66667H3.83301C3.56148 7.66667 3.33388 7.75851 3.1502 7.94219C2.96652 8.12587 2.87467 8.35347 2.87467 8.625V14.375C2.87467 14.6465 2.96652 14.8741 3.1502 15.0578C3.33388 15.2415 3.56148 15.3333 3.83301 15.3333ZM20.6038 13.8958V9.10417H21.083C21.3545 9.10417 21.5821 9.19601 21.7658 9.37969C21.9495 9.56337 22.0413 9.79097 22.0413 10.0625V12.9375C22.0413 13.209 21.9495 13.4366 21.7658 13.6203C21.5821 13.804 21.3545 13.8958 21.083 13.8958H20.6038Z" fill="#FF9500"/>
</g>
</svg>
