<svg width="23" height="23" viewBox="0 0 23 23" fill="none" xmlns="http://www.w3.org/2000/svg">
<mask id="mask0_1355_2991" style="mask-type:alpha" maskUnits="userSpaceOnUse" x="0" y="0" width="23" height="23">
<rect width="23" height="23" fill="#D9D9D9"/>
</mask>
<g mask="url(#mask0_1355_2991)">
<path d="M11.5003 19.4782C11.2767 19.4782 11.0491 19.4382 10.8175 19.3584C10.5859 19.2785 10.3823 19.1507 10.2066 18.975L8.55345 17.4657C6.86039 15.9163 5.33105 14.379 3.96543 12.8537C2.5998 11.3283 1.91699 9.64725 1.91699 7.81045C1.91699 6.30906 2.42012 5.05524 3.42637 4.04899C4.43262 3.04274 5.68644 2.53961 7.18783 2.53961C8.03435 2.53961 8.83296 2.7193 9.58366 3.07867C10.3344 3.43805 10.9732 3.9292 11.5003 4.55211C12.0274 3.9292 12.6663 3.43805 13.417 3.07867C14.1677 2.7193 14.9663 2.53961 15.8128 2.53961C17.3142 2.53961 18.568 3.04274 19.5743 4.04899C20.5805 5.05524 21.0837 6.30906 21.0837 7.81045C21.0837 9.64725 20.4048 11.3323 19.0472 12.8657C17.6896 14.399 16.1482 15.9403 14.4232 17.4896L12.7941 18.975C12.6184 19.1507 12.4147 19.2785 12.1831 19.3584C11.9515 19.4382 11.7239 19.4782 11.5003 19.4782ZM10.5899 6.46878C10.1267 5.81392 9.63158 5.31479 9.10449 4.97138C8.57741 4.62798 7.93852 4.45628 7.18783 4.45628C6.22949 4.45628 5.43088 4.77572 4.79199 5.41461C4.1531 6.0535 3.83366 6.85211 3.83366 7.81045C3.83366 8.641 4.12914 9.52347 4.72012 10.4578C5.31109 11.3922 6.01786 12.2986 6.84043 13.1771C7.663 14.0556 8.50953 14.8782 9.38001 15.6448C10.2505 16.4115 10.9573 17.0424 11.5003 17.5375C12.0434 17.0424 12.7502 16.4115 13.6206 15.6448C14.4911 14.8782 15.3377 14.0556 16.1602 13.1771C16.9828 12.2986 17.6896 11.3922 18.2805 10.4578C18.8715 9.52347 19.167 8.641 19.167 7.81045C19.167 6.85211 18.8475 6.0535 18.2087 5.41461C17.5698 4.77572 16.7712 4.45628 15.8128 4.45628C15.0621 4.45628 14.4232 4.62798 13.8962 4.97138C13.3691 5.31479 12.8739 5.81392 12.4107 6.46878C12.2989 6.6285 12.1632 6.74829 12.0035 6.82815C11.8437 6.90801 11.676 6.94795 11.5003 6.94795C11.3246 6.94795 11.1569 6.90801 10.9972 6.82815C10.8375 6.74829 10.7017 6.6285 10.5899 6.46878Z" fill="#00D9FF"/>
</g>
</svg>
