<svg width="34" height="34" viewBox="0 0 34 34" fill="none" xmlns="http://www.w3.org/2000/svg">
<mask id="mask0_1369_1949" style="mask-type:alpha" maskUnits="userSpaceOnUse" x="0" y="0" width="34" height="34">
<rect width="34" height="34" fill="#00D9FF"/>
</mask>
<g mask="url(#mask0_1369_1949)">
<path d="M15.5833 27.5187V17.8146L7.08333 12.8916V22.5958L15.5833 27.5187ZM18.4167 27.5187L26.9167 22.5958V12.8916L18.4167 17.8146V27.5187ZM17 15.3708L25.3937 10.5187L17 5.66665L8.60625 10.5187L17 15.3708ZM5.66667 25.075C5.21806 24.8153 4.86979 24.4729 4.62188 24.0479C4.37396 23.6229 4.25 23.1507 4.25 22.6312V11.3687C4.25 10.8493 4.37396 10.3771 4.62188 9.95206C4.86979 9.52706 5.21806 9.1847 5.66667 8.92498L15.5833 3.2229C16.0319 2.96317 16.5042 2.83331 17 2.83331C17.4958 2.83331 17.9681 2.96317 18.4167 3.2229L28.3333 8.92498C28.7819 9.1847 29.1302 9.52706 29.3781 9.95206C29.626 10.3771 29.75 10.8493 29.75 11.3687V22.6312C29.75 23.1507 29.626 23.6229 29.3781 24.0479C29.1302 24.4729 28.7819 24.8153 28.3333 25.075L18.4167 30.7771C17.9681 31.0368 17.4958 31.1666 17 31.1666C16.5042 31.1666 16.0319 31.0368 15.5833 30.7771L5.66667 25.075Z" fill="#00D9FF"/>
</g>
</svg>
